<svg width="17" height="21" viewBox="0 0 17 21" fill="none" xmlns="http://www.w3.org/2000/svg">
<path d="M12.6612 0.0104709C12.6167 -0.0392221 11.0147 0.0300865 9.62073 1.54311C8.22671 3.05482 8.44117 4.78884 8.47256 4.83331C8.50394 4.87777 10.4603 4.94708 11.7091 3.18821C12.958 1.42934 12.7056 0.0614716 12.6612 0.0104709ZM16.9949 15.3538C16.9321 15.2283 13.9545 13.7401 14.2317 10.8789C14.5089 8.01758 16.4221 7.23165 16.4522 7.14665C16.4823 7.06165 15.6715 6.11355 14.8123 5.63363C14.1814 5.29558 13.4833 5.10174 12.7684 5.06608C12.6272 5.06216 12.1368 4.94185 11.1285 5.21777C10.4642 5.39954 8.96687 5.98801 8.55494 6.01155C8.14171 6.03509 6.91246 5.32893 5.59036 5.14193C4.74428 4.97846 3.84719 5.31324 3.2051 5.57086C2.56432 5.82717 1.34554 6.55687 0.49291 8.4962C-0.359717 10.4342 0.0862118 13.5047 0.405293 14.4594C0.724374 15.414 1.22261 16.9754 2.07001 18.1157C2.82325 19.4025 3.82234 20.2957 4.2395 20.5991C4.65666 20.9025 5.8336 21.1038 6.64961 20.6867C7.30608 20.2839 8.49087 20.0524 8.95903 20.0694C9.42588 20.0864 10.3465 20.2708 11.2894 20.7743C12.0361 21.0319 12.7422 20.9247 13.4497 20.637C14.1572 20.348 15.1811 19.2521 16.3764 17.0303C16.8297 15.9972 17.0359 15.4384 16.9949 15.3538Z" fill="white"/>
</svg>
