<svg width="18" height="19" viewBox="0 0 18 19" fill="none" xmlns="http://www.w3.org/2000/svg">
<path d="M17.71 8.34167H9.30417V10.8442H15.2717C14.9692 14.3367 12.0633 15.8308 9.31333 15.8308C5.8025 15.8308 2.7225 13.0625 2.7225 9.16667C2.7225 5.40833 5.65583 2.5025 9.3225 2.5025C12.155 2.5025 13.8142 4.30833 13.8142 4.30833L15.5558 2.49333C15.5558 2.49333 13.3192 0 9.23083 0C4.02417 0 0 4.4 0 9.16667C0 13.7958 3.78583 18.3333 9.36833 18.3333C14.2725 18.3333 17.8475 14.9692 17.8475 10.0008C17.8475 8.94667 17.71 8.34167 17.71 8.34167Z" fill="white"/>
</svg>
