<svg width="54" height="22" viewBox="0 0 54 22" fill="none" xmlns="http://www.w3.org/2000/svg">
<g clip-path="url(#clip0_0_410)">
<path d="M38.2775 5.93752C39.7619 5.93752 40.9091 6.35153 41.7864 7.17955C42.6636 8.00746 43.0684 9.11145 43.0684 10.4914V17.1151H41.179V15.5974H41.1115C40.3018 16.8394 39.1547 17.4603 37.8051 17.4603C36.6579 17.4603 35.6457 17.1152 34.836 16.4254C34.0937 15.7354 33.6213 14.7694 33.6213 13.7345C33.6213 12.6305 34.0263 11.7334 34.836 11.0435C35.6457 10.3535 36.7929 10.0775 38.1425 10.0775C39.3571 10.0775 40.3018 10.2846 41.044 10.7675V10.2846C41.044 9.64053 40.8089 8.9966 40.3387 8.57698L40.2342 8.4906C39.6945 8.00757 39.0197 7.7316 38.2775 7.7316C37.1303 7.7316 36.2531 8.21463 35.6457 9.18058L33.8913 8.07637C34.9709 6.62739 36.388 5.93752 38.2775 5.93752ZM28.7629 1.24559C29.9737 1.24559 31.1244 1.67642 32.0444 2.47985L32.2044 2.62544C33.1491 3.45346 33.6213 4.69549 33.6213 6.00643C33.6213 7.31737 33.1491 8.49038 32.2044 9.38731C31.2596 10.2844 30.1125 10.7673 28.7629 10.7673L25.524 10.6983V17.1151H23.4995V1.24559H28.7629ZM38.5473 11.7333C37.7376 11.7333 37.0628 11.9403 36.523 12.3543C35.9831 12.6993 35.7132 13.1822 35.7132 13.8032C35.7132 14.3552 35.9832 14.8381 36.388 15.1142C36.8604 15.4592 37.4002 15.6662 37.9401 15.6662C38.6958 15.6662 39.4516 15.3656 40.0427 14.8207L40.1668 14.7002C40.8416 14.0792 41.179 13.3202 41.179 12.4922C40.5717 12.0093 39.6944 11.7332 38.5474 11.7332M28.898 3.17738H25.5241V8.69755H28.898C29.6402 8.69755 30.3825 8.42158 30.8549 7.86964C31.9345 6.83467 31.9345 5.10972 30.9224 4.07464L30.8549 4.00562C30.315 3.45368 29.6402 3.10869 28.8979 3.17771M54 6.28251L47.3196 21.9451H45.2953L47.7919 16.4943L43.4058 6.35153H45.5652L48.7366 14.1483H48.8041L51.9082 6.35153H54V6.28251Z" fill="white"/>
<path d="M17.494 9.3184C17.494 8.69744 17.4265 8.07648 17.359 7.45552H8.92432V10.9744H13.7152C13.5128 12.0783 12.9056 13.1133 11.9609 13.7344V16.0113H14.8624C16.5494 14.4243 17.4941 12.0783 17.4941 9.31851" fill="white"/>
<path d="M8.92414 18.2192C11.3533 18.2192 13.3777 17.3912 14.8622 16.0113L11.9607 13.7344C11.1509 14.2863 10.1387 14.6313 8.92414 14.6313C6.62977 14.6313 4.6054 13.0444 3.93062 10.8364H0.96167V13.1823C2.51364 16.2872 5.55019 18.2192 8.92414 18.2192Z" fill="white"/>
<path d="M3.93058 10.8364C3.52579 9.73241 3.52579 8.49049 3.93058 7.31748V4.97157H0.961638C-0.320546 7.52454 -0.320546 10.5604 0.961638 13.1823L3.93058 10.8364Z" fill="white"/>
<path d="M8.92413 3.59161C10.2062 3.59161 11.4208 4.07464 12.3656 4.97157L14.9297 2.34968C13.3101 0.831685 11.1509 -0.0652465 8.99152 0.00366524C5.61758 0.00366524 2.51363 1.93567 1.02905 5.04059L3.9981 7.3865C4.60539 5.17852 6.62976 3.59161 8.92413 3.59161Z" fill="white"/>
</g>
<defs>
<clipPath id="clip0_0_410">
<rect width="54" height="22" fill="white"/>
</clipPath>
</defs>
</svg>
